<?xml version="1.0" encoding="iso-8859-1"?>
<!-- Generator: Adobe Illustrator 16.0.0, SVG Export Plug-In . SVG Version: 6.00 Build 0)  -->
<!DOCTYPE svg PUBLIC "-//W3C//DTD SVG 1.1//EN" "http://www.w3.org/Graphics/SVG/1.1/DTD/svg11.dtd">
<svg xmlns="http://www.w3.org/2000/svg" xmlns:xlink="http://www.w3.org/1999/xlink" version="1.1" id="Capa_1" x="0px" y="0px" width="512px" height="512px" viewBox="0 0 47.618 47.618" style="enable-background:new 0 0 47.618 47.618;" xml:space="preserve">
<g>
	<g>
		<path d="M7.038,8.554C4.577,11.096,3.716,11.999,7.02,8.64c0.774-0.787,1.403-1.448,1.406-1.475    C8.427,7.139,7.806,7.76,7.038,8.554z" fill="#FFFFFF"/>
		<path d="M5.357,3.379C5.108,3.32,4.755,3.414,4.447,3.568C3.873,3.446,2.985,3.765,2.983,4.266    c-0.016,3.493-0.268,6.913-1.032,10.329c-0.078,0.349,0.351,0.504,0.615,0.518c3.573,0.201,11.142,0.002,12.37-4.442    C16.528,4.912,9.215,4.294,5.357,3.379z M4.916,4.693C5.606,4.826,6.382,4.949,7.18,5.097C6.757,5.319,6.235,5.707,5.763,6.172    C5.581,6.351,5.399,6.529,5.216,6.708c-0.132,0.13-0.259,0.284-0.382,0.448C4.875,6.338,4.904,5.517,4.916,4.693z M7.06,13.782    c0.391-0.513,0.794-1.445,0.924-2.253c0.148-0.929-0.396-1.045-1.164-0.252c-0.681,0.701-1.36,1.403-2.041,2.106    c-0.191,0.197-0.335,0.387-0.434,0.56c-0.227,0.016-0.415,0.034-0.549,0.059c0.166-0.259,0.359-0.834,0.483-1.567    c0.099-0.583,0.177-1.167,0.25-1.751c0.091-0.069,0.186-0.154,0.286-0.257c0.767-0.785,1.515-1.55,2.24-2.291    c0.772-0.79,1.413-1.8,1.421-2.258c0.003-0.194-0.054-0.379-0.14-0.54c2.203,0.51,4.296,1.379,4.848,3.461    C14.099,12.25,10.402,13.435,7.06,13.782z" fill="#FFFFFF"/>
		<path d="M12.979,25.793c2.288-5.498-6.301-6.413-9.55-7.185c-0.216-0.052-0.588,0.04-0.913,0.188    c-0.569-0.027-1.475,0.284-1.477,0.779C1.023,23.028,0.765,26.4,0.008,29.774c-0.073,0.33,0.36,0.38,0.581,0.393    C4.516,30.389,11.19,30.088,12.979,25.793z M2.893,21.94c0.114-0.082,0.233-0.179,0.359-0.308    c0.111-0.113,0.223-0.226,0.332-0.337c0.494-0.502,0.724-0.981,0.667-1.294c0.266,0.046,0.536,0.095,0.81,0.146    c-0.26,0.25-0.703,0.695-1.202,1.21c-0.214,0.221-0.428,0.441-0.64,0.66c-0.121,0.125-0.237,0.245-0.35,0.362    C2.876,22.233,2.885,22.086,2.893,21.94z M3.355,29.151c-0.715,0.019-1.283,0.04-1.555,0.081c0.088-0.122,0.188-0.354,0.283-0.663    c0.093-0.071,0.19-0.155,0.296-0.261c0.844-0.832,1.686-1.663,2.53-2.495c0.786-0.775,1.497-2.143,1.547-3.053    c0.05-0.911-0.56-1.009-1.328-0.216c-0.724,0.747-1.446,1.493-2.17,2.24c-0.104,0.107-0.208,0.23-0.31,0.358    c0.097-0.879,0.164-1.761,0.215-2.644c0.394-0.404,0.784-0.807,1.169-1.201c0.465-0.478,0.862-0.898,1.083-1.142    c2.622,0.489,5.45,1.264,6.12,3.792C12.342,28.129,6.991,29.054,3.355,29.151z" fill="#FFFFFF"/>
		<path d="M37.794,10.904c-0.268-0.063-0.614,0.029-0.914,0.189c-0.576-0.143-1.447,0.171-1.45,0.73    c-0.017,3.493-0.27,6.913-1.033,10.329c-0.08,0.356,0.348,0.582,0.636,0.598c3.63,0.205,11.117,0.015,12.36-4.484    C48.994,12.472,41.683,11.827,37.794,10.904z M37.712,21.415c-0.629,0.019-1.136,0.053-1.43,0.109    c0.159-0.273,0.336-0.815,0.451-1.495c0.018-0.104,0.026-0.207,0.044-0.31c0.096-0.068,0.195-0.15,0.302-0.249    c0.75-0.698,1.501-1.396,2.251-2.095c0.81-0.752,1.517-2.033,1.553-2.862c0.038-0.83-0.608-0.894-1.419-0.143    c-0.628,0.583-1.257,1.166-1.886,1.749c-0.143,0.133-0.282,0.29-0.417,0.455c0.096-1.09,0.158-2.185,0.19-3.285    c0.037-0.031,0.067-0.048,0.105-0.083c0.308-0.283,0.505-0.553,0.588-0.768c2.89,0.502,6.813,1.007,7.59,3.937    C46.702,20.398,41.301,21.309,37.712,21.415z" fill="#FFFFFF"/>
		<path d="M33.098,37.966c3.8,0.215,11.517-0.024,12.46-4.937c1.084-5.646-6.124-6.179-9.955-7.087    c-0.328-0.078-0.639,0.029-0.874,0.211c-0.562-0.061-1.255,0.245-1.258,0.801c-0.017,3.493-0.269,6.913-1.032,10.328    C32.358,37.643,32.786,37.948,33.098,37.966z M35.417,27.758c0.06-0.069,0.104-0.135,0.146-0.198    c0.683,0.134,1.48,0.261,2.309,0.417c-0.35,0.24-0.777,0.603-1.193,1.021c-0.342,0.344-0.682,0.687-1.021,1.028    c-0.118,0.119-0.232,0.257-0.344,0.402C35.369,29.542,35.402,28.652,35.417,27.758z M34.787,35.199    c0.07-0.414,0.121-0.829,0.178-1.244c0.083-0.067,0.169-0.146,0.262-0.238c0.76-0.778,1.525-1.564,2.298-2.356    c0.771-0.79,1.423-1.914,1.439-2.511c0.008-0.244-0.027-0.47-0.083-0.663c2.439,0.558,4.804,1.542,4.852,3.993    c0.067,3.557-4.628,4.283-7.988,4.338c-0.598,0.011-1.084,0.044-1.382,0.101C34.516,36.342,34.68,35.838,34.787,35.199z" fill="#FFFFFF"/>
		<path d="M31.519,10.667c1.59-5.751-5.723-6.36-9.573-7.274c-0.243-0.058-0.6,0.035-0.91,0.19    c-0.573-0.116-1.464,0.203-1.467,0.688c-0.016,3.494-0.269,6.914-1.033,10.329c-0.077,0.346,0.353,0.481,0.609,0.496    C22.7,15.298,30.294,15.095,31.519,10.667z M21.867,13.92c-0.671,0.018-1.21,0.047-1.495,0.097    c0.132-0.203,0.283-0.614,0.404-1.153c0.072-0.067,0.146-0.136,0.224-0.214c0.834-0.839,1.668-1.677,2.502-2.515    c0.778-0.783,1.439-1.76,1.465-2.184c0.026-0.423-0.589-0.132-1.369,0.65c-0.746,0.748-1.492,1.495-2.237,2.243    c-0.112,0.112-0.216,0.237-0.323,0.358c0.235-1.706,0.376-3.419,0.435-5.148c0.07-0.06,0.141-0.123,0.215-0.197    c0.391-0.392,0.614-0.759,0.661-1.025c2.889,0.5,6.647,1.047,7.422,3.966C30.856,12.903,25.476,13.818,21.867,13.92z" fill="#FFFFFF"/>
		<path d="M29.395,26.14c3.109-5.478-6.109-6.683-9.188-7.415c-0.188-0.044-0.572,0.052-0.93,0.188    c-0.533-0.052-1.65,0.218-1.652,0.663c-0.016,3.459-0.265,6.851-1.021,10.232c-0.046,0.203,0.175,0.24,0.332,0.249    C20.837,30.278,27.191,30.022,29.395,26.14z M27.284,26.822c-0.872,1.536-2.906,2.125-4.92,2.34    c-0.104-0.098-0.168-0.213-0.145-0.338c0.057-0.301-0.251-0.181-0.688,0.271c-0.048,0.051-0.082,0.098-0.11,0.144    c-0.874,0.049-1.704,0.045-2.396,0.032c0.173-0.174,0.358-0.359,0.562-0.566c0.385-0.393,0.799-0.815,1.251-1.275    c0.331-0.341,0.655-0.674,0.976-1.003c0.539-0.555,0.978-1.035,0.984-1.072c0.005-0.039-0.615,0.571-1.385,1.364    c-0.607,0.626-1.202,1.238-1.769,1.823c-0.259,0.267-0.496,0.514-0.7,0.729c-0.014,0-0.03-0.001-0.044-0.001    c-0.131-0.004-0.207-0.043-0.262-0.096c0.202-0.192,0.422-0.407,0.648-0.639c0.751-0.768,1.473-1.503,2.164-2.205    c0.774-0.788,1.486-2.154,1.554-3.059c0.067-0.904-0.549-1.012-1.337-0.238c-0.709,0.696-1.419,1.395-2.132,2.096    c-0.106,0.104-0.211,0.222-0.314,0.346c0-0.005,0.001-0.01,0.002-0.015c0.209-1.862,0.294-3.725,0.32-5.595    c0.035-0.051,0.072-0.103,0.095-0.145C23.429,20.514,30.154,21.767,27.284,26.822z" fill="#FFFFFF"/>
		<path d="M14.923,44.203c3.966,0.225,10.582-0.076,12.383-4.4c2.296-5.515-6.302-6.453-9.562-7.227    c-0.229-0.055-0.594,0.038-0.912,0.189c-0.571-0.098-1.468,0.225-1.47,0.668c-0.016,3.493-0.268,6.913-1.033,10.328    C14.253,44.101,14.686,44.19,14.923,44.203z M16.62,41.718c0.099-0.092,0.2-0.187,0.306-0.284    c0.768-0.717,1.537-1.435,2.311-2.155c0.808-0.754,1.472-1.479,1.479-1.617c0.008-0.139-0.617,0.384-1.398,1.165    c-0.768,0.771-1.574,1.58-2.417,2.425c-0.082,0.083-0.162,0.163-0.24,0.242c0.343-2.049,0.523-4.104,0.597-6.184    c0.078-0.066,0.158-0.142,0.241-0.227c0.422-0.436,0.656-0.844,0.682-1.125c2.893,0.503,6.607,1.065,7.381,3.99    c0.872,3.291-2.327,4.545-5.495,4.974c-0.034-0.158-0.046-0.335-0.008-0.534c0.104-0.541-0.438-0.405-1.2,0.302    c-0.146,0.136-0.247,0.263-0.325,0.384c-0.295,0.018-0.584,0.032-0.861,0.04c-0.691,0.019-1.249,0.043-1.529,0.088    C16.297,42.972,16.486,42.422,16.62,41.718z" fill="#FFFFFF"/>
	</g>
</g>
<g>
</g>
<g>
</g>
<g>
</g>
<g>
</g>
<g>
</g>
<g>
</g>
<g>
</g>
<g>
</g>
<g>
</g>
<g>
</g>
<g>
</g>
<g>
</g>
<g>
</g>
<g>
</g>
<g>
</g>
</svg>
